# AST/ASF file generated using VICON BodyLanguage
# -----------------------------------------------
:version 1.10
:name VICON
:units
  mass 1.0
  length 0.45
  angle deg
:documentation
   .ast/.asf automatically generated from VICON data using
   VICON BodyBuilder and BodyLanguage model FoxedUp or BRILLIANT.MOD
:root
   order TX TY TZ RX RY RZ
   axis XYZ
   position 0 0 0  
   orientation 0 0 0 
:bonedata
  begin
     id 1 
     name lhipjoint
     direction 0.710188 -0.616876 0.339259 
     length 2.5669 
     axis 0 0 0  XYZ
  end
  begin
     id 2 
     name lfemur
     direction 0.34202 -0.939693 0  
     length 7.12796  
     axis 0 0 20  XYZ
    dof rx ry rz
    limits (-160.0 20.0)
           (-70.0 70.0)
           (-60.0 70.0)
  end
  begin
     id 3 
     name ltibia
     direction 0.34202 -0.939693 0   
     length 7.58108   
     axis 0 0 20   XYZ
    dof rx
    limits (-10.0 170.0)
  end
  begin
     id 4 
     name lfoot
     direction 0.0669471 -0.183936 0.980656   
     length 2.17365   
     axis -90 7.62852e-016 20   XYZ
    dof rx rz
    limits (-45.0 90.0)
           (-70.0 20.0)
  end
  begin
     id 5 
     name ltoes
     direction 1.53508e-011 -4.21705e-011 1   
     length 1.09427   
     axis -90 7.62852e-016 20   XYZ
    dof rx
    limits (-90.0 20.0)
  end
  begin
     id 6 
     name rhipjoint
     direction -0.700191 -0.625589 0.34405   
     length 2.53115  
     axis 0 0 0  XYZ 
  end
  begin
     id 7 
     name rfemur
     direction -0.34202 -0.939693 0   
     length 7.33006   
     axis 0 0 -20   XYZ
    dof rx ry rz
    limits (-160.0 20.0)
           (-70.0 70.0)
           (-70.0 60.0)
  end
  begin
     id 8 
     name rtibia
     direction -0.34202 -0.939693 0   
     length 7.64926   
     axis 0 0 -20   XYZ
    dof rx
    limits (-10.0 170.0)
 end
 begin
     id 9 
     name rfoot
     direction -0.0688927 -0.189281 0.979503   
     length 2.20493  
     axis -90 -7.62852e-016 -20   XYZ
    dof rx rz
    limits (-45.0 90.0)
           (-20.0 70.0)
  end
  begin
     id 10 
     name rtoes
     direction -1.53567e-011 -4.21933e-011 1   
     length 1.10919   
     axis -90 -7.62852e-016 -20   XYZ
    dof rx
    limits (-90.0 20.0)
  end
  begin
     id 11 
     name lowerback
     direction -0.0167868 0.989873 -0.140959   
     length 2.14596   
     axis 0 0 0   XYZ
    dof rx ry rz
    limits (-20.0 45.0)
           (-30.0 30.0)
           (-30.0 30.0)
  end
  begin
     id 12 
     name upperback
     direction 0.0129109 0.998033 0.0613525   
     length 2.10457   
     axis 0 0 0   XYZ
    dof rx ry rz
    limits (-20.0 45.0)
           (-30.0 30.0)
           (-30.0 30.0)
  end
  begin
     id 13 
     name thorax
     direction 0.0177047 0.991119 0.131797   
     length 2.17652   
     axis 0 0 0   XYZ
    dof rx ry rz
    limits (-20.0 45.0)
           (-30.0 30.0)
           (-30.0 30.0)
  end
  begin
     id 14 
     name lowerneck
     direction -0.0336893 0.997548 0.0613464   
     length 1.8912   
     axis 0 0 0   XYZ
    dof rx ry rz
    limits (-20.0 45.0)
           (-30.0 30.0)
           (-30.0 30.0)
  end
  begin
     id 15 
     name upperneck
     direction 0.0435909 0.997179 -0.0611028   
     length 1.8829   
     axis 0 0 0   XYZ
    dof rx ry rz
    limits (-20.0 45.0)
           (-30.0 30.0)
           (-30.0 30.0)
  end
  begin
     id 16
     name head
     direction 0.0175076 0.999444 -0.0283782  
     length 1.93197  
     axis 0 0 0   XYZ
    dof rx ry rz
    limits (-20.0 45.0)
           (-30.0 30.0)
           (-30.0 30.0)
  end
  begin
     id 17 
     name lclavicle
     direction 0.919164 0.389875 0.0559876  
     length 3.60004  
     axis 0 0 0   XYZ
    dof ry rz
    limits (-20.0 10.0)
           (0.0 20.0)
  end
  begin
     id 18 
     name lhumerus
     direction 1 -4.48958e-011 6.89191e-027   
     length 5.43301   
     axis 180 -30 -90   XYZ
    dof rx ry rz
    limits (-60.0 90.0)
           (-90.0 90.0)
           (-90.0 90.0)
  end
  begin
     id 19
     name lradius
     direction 1 -4.4897e-011 3.24727e-027   
     length 3.15936   
     axis 180 -30 -90   XYZ
    dof rx
    limits (-10.0 170.0)
  end
  begin
     id 20
     name lwrist
     direction 1 -4.4897e-011 9.00228e-027   
     length 1.57968   
     axis -6.29373e-015 90 90   XYZ
    dof ry
    limits (-180.0 0.0)
 end
  begin
     id 21 
     name lhand
     direction 1 -4.48968e-011 1.80042e-026   
     length 0.712827   
     axis -1.14882e-014 90 90   XYZ
    dof rx rz
    limits (-90.0 90.0)
           (-45.0 45.0)
  end
  begin
     id 22 
     name lfingers
     direction 1 -4.49019e-011 3.60267e-026   
     length 0.574699   
     axis -2.29769e-014 90 90   XYZ
    dof rx
    limits (0.0 90.0)
  end
  begin
     id 23
     name lthumb
     direction 0.707107 -6.3498e-011 0.707107   
     length 0.825157   
     axis -90 45 5.37419e-014   XYZ
    dof rx rz
    limits (-45.0 45.0)
           (-45.0 45.0)
  end
  begin
     id 24 
     name rclavicle
     direction -0.890334 0.455305 -0.00132111   
     length 3.51494  
     axis 0 0 0   XYZ 
    dof ry rz
    limits (-10.0 20.0)
           (-20.0 0.0)
  end
  begin
     id 25 
     name rhumerus
     direction -1 -4.48967e-011 5.07175e-028  
     length 5.34194   
     axis 180 30 90   XYZ
    dof rx ry rz
    limits (-90.0 60.0)
           (-90.0 90.0)
           (-90.0 90.0)
  end
  begin
     id 26 
     name rradius
     direction -1 -4.48955e-011 3.30467e-027   
     length 3.19351   
     axis 180 30 90   XYZ
    dof rx
    limits (-10.0 170.0)
  end
  begin
     id 27 
     name rwrist
     direction -1 -4.48968e-011 9.00208e-027   
     length 1.59676   
     axis -6.29373e-015 -90 -90   XYZ
    dof ry
    limits (-180.0 0.0)
  end
  begin
     id 28
     name rhand
     direction -1 -4.49e-011 1.80099e-026   
     length 0.743862   
     axis -1.14882e-014 -90 -90   XYZ
    dof rx rz
    limits (-90.0 90.0)
           (-45.0 45.0)
  end
  begin
     id 29
     name rfingers
     direction -1 -4.49009e-011 3.6023e-026   
     length 0.599721   
     axis -2.29769e-014 -90 -90   XYZ
    dof rx
    limits (0.0 90.0)
  end
  begin
     id 30
     name rthumb
     direction -0.707107 -6.35025e-011 0.707107   
     length 0.861083   
     axis -90 -45 -5.37419e-014   XYZ
    dof rx rz
    limits (-45.0 45.0)
           (-45.0 45.0)
  end
:hierarchy
  begin
    root lhipjoint rhipjoint lowerback
    lhipjoint lfemur
    lfemur ltibia
    ltibia lfoot
    lfoot ltoes
    rhipjoint rfemur
    rfemur rtibia
    rtibia rfoot
    rfoot rtoes
    lowerback upperback
    upperback thorax
    thorax lowerneck lclavicle rclavicle
    lowerneck upperneck
    upperneck head
    lclavicle lhumerus
    lhumerus lradius
    lradius lwrist
    lwrist lhand lthumb
    lhand lfingers
    rclavicle rhumerus
    rhumerus rradius
    rradius rwrist
    rwrist rhand rthumb
    rhand rfingers
  end

#!OML:ASF H:\Martial Arts Walks\Project 1\Capture day 1\Session 1\male.ASF
:FULLY-SPECIFIED
:DEGREES
626
root -1.67867 14.5811 -3.52582 1.41531 -43.1215 -2.51984
lowerback 16.3125 6.24706 -1.39185
upperback -3.67496 8.00446 -0.637989
thorax -13.3527 3.79048 -2.13371
lowerneck -6.58548 6.32695 -0.975181
upperneck 7.89752 8.31626 3.03934
head 3.5439 4.2205 1.58421
rclavicle 9.05421e-014 2.18663e-014
rhumerus -36.5049 58.6586 -108.231
rradius 111.333
rwrist -35.2104
rhand 11.5857 -8.23719
rfingers 7.12502
rthumb 36.6288 -34.3967
lclavicle 9.05421e-014 2.18663e-014
lhumerus 4.92397 -14.3841 76.9717
lradius 111.507
lwrist -16.9104
lhand -38.3405 58.2847
lfingers 7.12502
lthumb -11.3677 87.9565
rfemur -36.6647 -18.7309 29.3942
rtibia 76.677
rfoot -33.6814 -16.6146
rtoes 3.3738
lfemur -52.069 27.0883 -6.6767
ltibia 44.5421
lfoot 24.3297 9.59986
ltoes 4.03334
627
root -1.66549 14.5588 -3.29167 0.976136 -44.9878 -2.19335
lowerback 15.9962 6.68001 -1.09694
upperback -3.63549 8.62611 -0.846367
thorax -13.0333 4.05837 -2.64497
lowerneck -6.60921 6.45958 -0.775057
upperneck 8.05486 8.47939 2.95532
head 3.61256 4.30341 1.53756
rclavicle 2.59166e-014 1.55052e-014
rhumerus -39.8389 55.1131 -108.954
rradius 113.44
rwrist -51.4472
rhand 12.3767 -11.0147
rfingers 7.12502
rthumb 37.3769 -36.9808
lclavicle 2.59166e-014 1.55052e-014
lhumerus 2.49096 -9.40864 78.9707
lradius 109.265
lwrist -9.47913
lhand -39.1374 56.3466
lfingers 7.12502
lthumb -12.1361 85.9746
rfemur -36.0947 -19.4489 28.5651
rtibia 77.1092
rfoot -34.3699 -16.5272
rtoes 3.34379
lfemur -49.9675 27.3325 -5.18313
ltibia 42.3885
lfoot 25.6385 11.1657
ltoes 6.98472
628
root -1.65205 14.5296 -3.06352 0.486954 -46.7092 -1.86751
lowerback 15.7553 7.05661 -0.698368
upperback -3.59171 9.18897 -1.0687
thorax -12.7246 4.2931 -3.20958
lowerneck -6.52361 6.60589 -0.611245
upperneck 8.22089 8.66379 2.88037
head 3.66115 4.39583 1.49618
rclavicle 6.72762e-015 1.03368e-014
rhumerus -42.3056 51.5806 -108.838
rradius 114.809
rwrist -65.9335
rhand 12.6035 -14.56
rfingers 7.12502
rthumb 37.5913 -40.4693
lclavicle 6.72762e-015 1.03368e-014
lhumerus 0.782142 -4.97632 80.4354
lradius 106.651
lwrist -3.98657
lhand -39.8413 54.4406
lfingers 7.12502
lthumb -12.8147 84.0273
rfemur -35.5272 -20.0459 27.6301
rtibia 77.6186
rfoot -35.0421 -16.3058
rtoes 3.18779
lfemur -47.9668 27.4938 -3.80009
ltibia 40.8292
lfoot 26.4679 12.4869
ltoes 9.74269
629
root -1.63864 14.4931 -2.84416 -0.0497431 -48.2738 -1.53128
lowerback 15.6087 7.36586 -0.232347
upperback -3.54934 9.67182 -1.29685
thorax -12.4519 4.48663 -3.79979
lowerneck -6.38864 6.77571 -0.465297
upperneck 8.45402 8.8817 2.80126
head 3.7231 4.50389 1.45825
rclavicle 1.03356e-013 -7.15625e-015
rhumerus -44.2542 48.523 -108.444
rradius 115.399
rwrist -76.8724
rhand 11.8893 -17.7303
rfingers 7.12502
rthumb 36.916 -43.8164
lclavicle 1.03356e-013 -7.15625e-015
lhumerus -0.405605 -1.28313 81.4225
lradius 103.87
lwrist -0.946246
lhand -40.3658 52.815
lfingers 7.12502
lthumb -13.3203 82.3693
rfemur -34.9806 -20.4711 26.602
rtibia 78.2052
rfoot -35.6614 -16.0168
rtoes 2.80356
lfemur -46.1526 27.617 -2.59534
ltibia 39.8795
lfoot 26.8555 13.2061
ltoes 11.8758
630
root -1.62584 14.449 -2.63603 -0.634297 -49.6692 -1.17183
lowerback 15.5643 7.59939 0.232295
upperback -3.50816 10.052 -1.51653
thorax -12.2371 4.63211 -4.36345
lowerneck -6.25739 6.97064 -0.319936
upperneck 8.76614 9.13329 2.72159
head 3.81395 4.62842 1.4252
rclavicle -8.54401e-014 1.07344e-014
rhumerus -45.8523 46.2508 -108.137
rradius 115.417
rwrist -83.7886
rhand 10.3687 -20.012
rfingers 7.12502
rthumb 35.4759 -46.4556
lclavicle -8.54401e-014 1.07344e-014
lhumerus -1.25723 1.59203 81.9701
lradius 101.17
lwrist -0.263638
lhand -40.6811 51.56
lfingers 7.12502
lthumb -13.6243 81.0941
rfemur -34.4737 -20.7063 25.5089
rtibia 78.8665
rfoot -36.2143 -15.7395
rtoes 2.15242
lfemur -44.603 27.7667 -1.63752
ltibia 39.5276
lfoot 26.8305 13.084
ltoes 12.9971
631
root -1.61431 14.3973 -2.44098 -1.26729 -50.8804 -0.776999
lowerback 15.6171 7.75196 0.608324
upperback -3.46424 10.3082 -1.70976
thorax -12.0971 4.72421 -4.83358
lowerneck -6.15756 7.18171 -0.165551
upperneck 9.11361 9.40447 2.65748
head 3.92406 4.76361 1.39999
rclavicle -2.21272e-014 -1.19271e-015
rhumerus -47.1367 44.8748 -108.059
rradius 115.097
rwrist -87.0416
rhand 8.43666 -21.4413
rfingers 7.12502
rthumb 33.6421 -48.3038
lclavicle -2.21272e-014 -1.19271e-015
lhumerus -1.92221 3.67227 82.1154
lradius 98.7802
lwrist -1.49895
lhand -40.771 50.7042
lfingers 7.12502
lthumb -13.711 80.2325
rfemur -34.0233 -20.7759 24.3897
rtibia 79.5972
rfoot -36.7077 -15.5537
rtoes 1.27058
lfemur -43.3823 28.0101 -0.985073
ltibia 39.736
lfoot 26.3799 12.109
ltoes 12.906
632
root -1.60457 14.3386 -2.25996 -1.93707 -51.8916 -0.348974
lowerback 15.7498 7.82266 0.819908
upperback -3.41328 10.4264 -1.85762
thorax -12.0405 4.76068 -5.14725
lowerneck -6.08587 7.39112 -0.00376676
upperneck 9.41346 9.67011 2.62802
head 4.02268 4.89813 1.38465
rclavicle 1.04735e-014 1.11319e-014
rhumerus -48.1339 44.3593 -108.23
rradius 114.602
rwrist -87.3612
rhand 6.66095 -22.2874
rfingers 7.12502
rthumb 31.9529 -49.5028
lclavicle 1.04735e-014 1.11319e-014
lhumerus -2.50193 5.03913 81.9157
lradius 96.8676
lwrist -4.06979
lhand -40.6428 50.2585
lfingers 7.12502
lthumb -13.5873 79.7951
rfemur -33.6411 -20.7422 23.292
rtibia 80.3868
rfoot -37.1623 -15.5164
rtoes 0.27663
lfemur -42.5355 28.3938 -0.665979
ltibia 40.4431
lfoot 25.4675 10.5195
ltoes 11.6847
633
root -1.59681 14.2744 -2.09293 -2.60651 -52.6903 0.0826345
lowerback 15.9354 7.81595 0.83013
upperback -3.35313 10.4068 -1.94287
thorax -12.0629 4.74429 -5.26336
lowerneck -6.01761 7.57738 0.155232
upperneck 9.5772 9.90171 2.64402
head 4.07208 5.01832 1.37805
rclavicle -5.99708e-014 8.74653e-015
rhumerus -48.9 44.5572 -108.601
rradius 114.051
rwrist -85.7147
rhand 5.55691 -22.7794
rfingers 7.12502
rthumb 30.901 -50.1997
lclavicle -5.99708e-014 8.74653e-015
lhumerus -3.04098 5.79854 81.4572
lradius 95.5147
lwrist -7.34175
lhand -40.3449 50.1526
lfingers 7.12502
lthumb -13.3002 79.7082
rfemur -33.3329 -20.6889 22.2713
rtibia 81.2168
rfoot -37.595 -15.6625
rtoes -0.690045
lfemur -42.0824 28.9264 -0.664777
ltibia 41.5647
lfoot 24.106 8.7018
ltoes 9.70517
634
root -1.59085 14.2068 -1.93893 -3.20264 -53.2719 0.450277
lowerback 16.1444 7.74181 0.659271
upperback -3.28721 10.2678 -1.9514
thorax -12.1493 4.68388 -5.17633
lowerneck -5.92111 7.72107 0.295235
upperneck 9.54494 10.0755 2.70554
head 4.0433 5.11189 1.37709
rclavicle 5.01807e-014 -3.97569e-015
rhumerus -49.5069 45.2348 -109.076
rradius 113.561
rwrist -83.2353
rhand 5.32162 -23.0285
rfingers 7.12502
rthumb 30.6767 -50.4911
lclavicle 5.01807e-014 -3.97569e-015
lhumerus -3.53502 6.05878 80.8497
lradius 94.7099
lwrist -10.7111
lhand -39.9859 50.2922
lfingers 7.12502
lthumb -12.9542 79.87
rfemur -33.0995 -20.6993 21.3917
rtibia 82.0585
rfoot -38.0127 -15.9985
rtoes -1.50234
lfemur -42.0177 29.575 -0.918729
ltibia 42.9985
lfoot 22.4014 7.03918
ltoes 7.49993
635
root -1.58629 14.1385 -1.7964 -3.63089 -53.6442 0.662841
lowerback 16.3494 7.61424 0.379139
upperback -3.22257 10.0439 -1.87586
thorax -12.2754 4.59304 -4.91843
lowerneck -5.77144 7.81032 0.404346
upperneck 9.30253 10.1789 2.79949
head 3.9266 5.17119 1.37647
rclavicle 6.70774e-014 3.18055e-015
rhumerus -50.0176 46.1235 -109.551
rradius 113.259
rwrist -80.9608
rhand 5.7472 -23.1245
rfingers 7.12502
rthumb 31.0824 -50.5103
lclavicle 6.70774e-014 3.18055e-015
lhumerus -3.94511 5.9283 80.206
lradius 94.3557
lwrist -13.7122
lhand -39.6737 50.6063
lfingers 7.12502
lthumb -12.6532 80.2031
rfemur -32.9362 -20.8371 20.715
rtibia 82.8744
rfoot -38.411 -16.5055
rtoes -2.08697
lfemur -42.3089 30.2797 -1.33357
ltibia 44.6317
lfoot 20.5307 5.7733
ltoes 5.55841
636
root -1.58264 14.0727 -1.66346 -3.80485 -53.8287 0.636535
lowerback 16.5279 7.4489 0.0856455
upperback -3.16737 9.7767 -1.71734
thorax -12.4145 4.48687 -4.54717
lowerneck -5.56163 7.84462 0.476762
upperneck 8.88547 10.2146 2.90766
head 3.73503 5.1957 1.37238
rclavicle -9.00867e-014 1.19271e-014
rhumerus -50.4794 46.9879 -109.946
rradius 113.231
rwrist -79.5078
rhand 6.40287 -23.2218
rfingers 7.12502
rthumb 31.7071 -50.4861
lclavicle -9.00867e-014 1.19271e-014
lhumerus -4.22146 5.5249 79.6199
lradius 94.2966
lwrist -16.1157
lhand -39.4678 51.056
lfingers 7.12502
lthumb -12.4547 80.6649
rfemur -32.8336 -21.1349 20.2845
rtibia 83.6245
rfoot -38.7774 -17.1437
rtoes -2.43339
lfemur -42.8983 30.9749 -1.80805
ltibia 46.3517
lfoot 18.6721 4.96739
ltoes 4.1596
637
root -1.57947 14.0124 -1.53833 -3.68025 -53.8556 0.330865
lowerback 16.6654 7.26106 -0.13464
upperback -3.129 9.50466 -1.48815
thorax -12.5457 4.37824 -4.12945
lowerneck -5.30165 7.83417 0.513867
upperneck 8.36326 10.1974 3.01428
head 3.49742 5.19158 1.36399
rclavicle -2.83144e-014 -1.63003e-014
rhumerus -50.9147 47.6688 -110.226
rradius 113.487
rwrist -78.9669
rhand 6.92516 -23.4862
rfingers 7.12502
rthumb 32.2045 -50.6509
lclavicle -2.83144e-014 -1.63003e-014
lhumerus -4.32428 4.97723 79.1507
lradius 94.3591
lwrist -17.9281
lhand -39.3612 51.5905
lfingers 7.12502
lthumb -12.3519 81.2057
rfemur -32.7799 -21.5934 20.1075
rtibia 84.2754
rfoot -39.0958 -17.8596
rtoes -2.58242
lfemur -43.7093 31.6073 -2.26052
ltibia 48.0585
lfoot 16.95 4.55482
ltoes 3.34731
638
root -1.5765 13.9599 -1.41949 -3.27412 -53.7606 -0.230625
lowerback 16.755 7.06533 -0.231548
upperback -3.11163 9.25597 -1.21158
thorax -12.6556 4.27625 -3.72459
lowerneck -5.01377 7.79575 0.523554
upperneck 7.81875 10.1487 3.10919
head 3.24888 5.16926 1.35283
rclavicle 1.23246e-014 6.36111e-015
rhumerus -51.3218 48.0963 -110.39
rradius 113.948
rwrist -79.0485
rhand 7.16858 -23.9675
rfingers 7.12502
rthumb 32.4361 -51.085
lclavicle 1.23246e-014 6.36111e-015
lhumerus -4.23501 4.41095 78.8215
lradius 94.3949
lwrist -19.2885
lhand -39.2971 52.1298
lfingers 7.12502
lthumb -12.2901 81.7486
rfemur -32.765 -22.1872 20.1481
rtibia 84.809
rfoot -39.3508 -18.5935
rtoes -2.60166
lfemur -44.6566 32.146 -2.64465
ltibia 49.6762
lfoot 15.4212 4.40573
ltoes 2.98648
639
root -1.57354 13.9162 -1.30589 -2.66141 -53.5824 -0.96416
lowerback 16.795 6.8756 -0.203207
upperback -3.11459 9.04597 -0.917421
thorax -12.738 4.18639 -3.37101
lowerneck -4.72411 7.74759 0.518424
upperneck 7.32639 10.0905 3.18616
head 3.02095 5.14019 1.34047
rclavicle -3.22404e-014 -1.51076e-014
rhumerus -51.6835 48.2789 -110.464
rradius 114.491
rwrist -79.332
rhand 7.17103 -24.5632
rfingers 7.12502
rthumb 32.4385 -51.6802
lclavicle -3.22404e-014 -1.51076e-014
lhumerus -3.95875 3.93245 78.6294
lradius 94.3084
lwrist -20.34
lhand -39.2092 52.5743
lfingers 7.12502
lthumb -12.2054 82.1982
rfemur -32.7813 -22.8736 20.3323
rtibia 85.2268
rfoot -39.5305 -19.291
rtoes -2.56173
lfemur -45.6581 32.5851 -2.95248
ltibia 51.1591
lfoot 14.0915 4.38425
ltoes 2.86216
640
root -1.57053 13.881 -1.19686 -1.95049 -53.3612 -1.75257
lowerback 16.7891 6.70461 -0.0869779
upperback -3.13277 8.87924 -0.636321
thorax -12.7913 4.11158 -3.08451
lowerneck -4.45696 7.70526 0.512089
upperneck 6.9401 10.0405 3.24302
head 2.83646 5.11424 1.32813
rclavicle 1.43113e-013 1.55052e-014
rhumerus -51.9738 48.2705 -110.479
rradius 114.989
rwrist -79.4922
rhand 7.05746 -25.1168
rfingers 7.12502
rthumb 32.3304 -52.256
lclavicle 1.43113e-013 1.55052e-014
lhumerus -3.51956 3.61321 78.5577
lradius 94.0648
lwrist -21.143
lhand -39.0657 52.84
lfingers 7.12502
lthumb -12.067 82.472
rfemur -32.8238 -23.6032 20.5671
rtibia 85.547
rfoot -39.6301 -19.9095
rtoes -2.51633
lfemur -46.6459 32.9398 -3.20531
ltibia 52.493
lfoot 12.9409 4.38731
ltoes 2.78249
